<?xml version="1.0" encoding="utf-8" standalone="no"?>
<!DOCTYPE svg PUBLIC "-//W3C//DTD SVG 1.1//EN"
  "http://www.w3.org/Graphics/SVG/1.1/DTD/svg11.dtd">
<!-- Created with matplotlib (https://matplotlib.org/) -->
<svg height="345.6pt" version="1.1" viewBox="0 0 460.8 345.6" width="460.8pt" xmlns="http://www.w3.org/2000/svg" xmlns:xlink="http://www.w3.org/1999/xlink">
 <defs>
  <style type="text/css">
*{stroke-linecap:butt;stroke-linejoin:round;}
  </style>
 </defs>
 <g id="figure_1">
  <g id="patch_1">
   <path d="M 0 345.6 
L 460.8 345.6 
L 460.8 0 
L 0 0 
z
" style="fill:#ffffff;"/>
  </g>
  <g id="axes_1">
   <g id="patch_2">
    <path d="M 57.6 307.584 
L 414.72 307.584 
L 414.72 41.472 
L 57.6 41.472 
z
" style="fill:#ffffff;"/>
   </g>
   <g id="patch_3">
    <path d="M 414.72 307.584 
L 396.864 314.2368 
L 402.2208 307.58495 
L 57.6 307.58495 
L 57.6 307.58305 
L 402.2208 307.58305 
L 396.864 300.9312 
z
" style="stroke:#000000;stroke-linejoin:miter;"/>
   </g>
   <g id="patch_4">
    <path d="M 57.6 41.472 
L 64.284463 59.24342 
L 57.611904 53.911994 
L 57.611904 307.584 
L 57.588096 307.584 
L 57.588096 53.911994 
L 50.915537 59.24342 
z
" style="stroke:#000000;stroke-linejoin:miter;"/>
   </g>
   <g id="matplotlib.axis_1">
    <g id="xtick_1">
     <g id="line2d_1">
      <path clip-path="url(#p8b6e2f557d)" d="M 57.6 307.584 
L 57.6 41.472 
" style="fill:none;stroke:#000000;stroke-dasharray:0.74,0.32;stroke-dashoffset:0;stroke-linecap:round;stroke-width:0.2;"/>
     </g>
     <g id="line2d_2">
      <defs>
       <path d="M 0 0 
L 0 3.5 
" id="m6021ab6d90" style="stroke:#000000;stroke-width:0.8;"/>
      </defs>
      <g>
       <use style="stroke:#000000;stroke-width:0.8;" x="57.6" xlink:href="#m6021ab6d90" y="307.584"/>
      </g>
     </g>
     <g id="text_1">
      <!-- 0 -->
      <defs>
       <path d="M 31.78125 66.40625 
Q 24.171875 66.40625 20.328125 58.90625 
Q 16.5 51.421875 16.5 36.375 
Q 16.5 21.390625 20.328125 13.890625 
Q 24.171875 6.390625 31.78125 6.390625 
Q 39.453125 6.390625 43.28125 13.890625 
Q 47.125 21.390625 47.125 36.375 
Q 47.125 51.421875 43.28125 58.90625 
Q 39.453125 66.40625 31.78125 66.40625 
z
M 31.78125 74.21875 
Q 44.046875 74.21875 50.515625 64.515625 
Q 56.984375 54.828125 56.984375 36.375 
Q 56.984375 17.96875 50.515625 8.265625 
Q 44.046875 -1.421875 31.78125 -1.421875 
Q 19.53125 -1.421875 13.0625 8.265625 
Q 6.59375 17.96875 6.59375 36.375 
Q 6.59375 54.828125 13.0625 64.515625 
Q 19.53125 74.21875 31.78125 74.21875 
z
" id="DejaVuSans-48"/>
      </defs>
      <g transform="translate(50.60125 331.300562)scale(0.22 -0.22)">
       <use xlink:href="#DejaVuSans-48"/>
      </g>
     </g>
    </g>
    <g id="xtick_2">
     <g id="line2d_3">
      <path clip-path="url(#p8b6e2f557d)" d="M 176.64 307.584 
L 176.64 41.472 
" style="fill:none;stroke:#000000;stroke-dasharray:0.74,0.32;stroke-dashoffset:0;stroke-linecap:round;stroke-width:0.2;"/>
     </g>
     <g id="line2d_4">
      <g>
       <use style="stroke:#000000;stroke-width:0.8;" x="176.64" xlink:href="#m6021ab6d90" y="307.584"/>
      </g>
     </g>
     <g id="text_2">
      <!-- 5 -->
      <defs>
       <path d="M 10.796875 72.90625 
L 49.515625 72.90625 
L 49.515625 64.59375 
L 19.828125 64.59375 
L 19.828125 46.734375 
Q 21.96875 47.46875 24.109375 47.828125 
Q 26.265625 48.1875 28.421875 48.1875 
Q 40.625 48.1875 47.75 41.5 
Q 54.890625 34.8125 54.890625 23.390625 
Q 54.890625 11.625 47.5625 5.09375 
Q 40.234375 -1.421875 26.90625 -1.421875 
Q 22.3125 -1.421875 17.546875 -0.640625 
Q 12.796875 0.140625 7.71875 1.703125 
L 7.71875 11.625 
Q 12.109375 9.234375 16.796875 8.0625 
Q 21.484375 6.890625 26.703125 6.890625 
Q 35.15625 6.890625 40.078125 11.328125 
Q 45.015625 15.765625 45.015625 23.390625 
Q 45.015625 31 40.078125 35.4375 
Q 35.15625 39.890625 26.703125 39.890625 
Q 22.75 39.890625 18.8125 39.015625 
Q 14.890625 38.140625 10.796875 36.28125 
z
" id="DejaVuSans-53"/>
      </defs>
      <g transform="translate(169.64125 331.300562)scale(0.22 -0.22)">
       <use xlink:href="#DejaVuSans-53"/>
      </g>
     </g>
    </g>
    <g id="xtick_3">
     <g id="line2d_5">
      <path clip-path="url(#p8b6e2f557d)" d="M 295.68 307.584 
L 295.68 41.472 
" style="fill:none;stroke:#000000;stroke-dasharray:0.74,0.32;stroke-dashoffset:0;stroke-linecap:round;stroke-width:0.2;"/>
     </g>
     <g id="line2d_6">
      <g>
       <use style="stroke:#000000;stroke-width:0.8;" x="295.68" xlink:href="#m6021ab6d90" y="307.584"/>
      </g>
     </g>
     <g id="text_3">
      <!-- 10 -->
      <defs>
       <path d="M 12.40625 8.296875 
L 28.515625 8.296875 
L 28.515625 63.921875 
L 10.984375 60.40625 
L 10.984375 69.390625 
L 28.421875 72.90625 
L 38.28125 72.90625 
L 38.28125 8.296875 
L 54.390625 8.296875 
L 54.390625 0 
L 12.40625 0 
z
" id="DejaVuSans-49"/>
      </defs>
      <g transform="translate(281.6825 331.300562)scale(0.22 -0.22)">
       <use xlink:href="#DejaVuSans-49"/>
       <use x="63.623047" xlink:href="#DejaVuSans-48"/>
      </g>
     </g>
    </g>
    <g id="xtick_4">
     <g id="line2d_7">
      <path clip-path="url(#p8b6e2f557d)" d="M 414.72 307.584 
L 414.72 41.472 
" style="fill:none;stroke:#000000;stroke-dasharray:0.74,0.32;stroke-dashoffset:0;stroke-linecap:round;stroke-width:0.2;"/>
     </g>
     <g id="line2d_8">
      <g>
       <use style="stroke:#000000;stroke-width:0.8;" x="414.72" xlink:href="#m6021ab6d90" y="307.584"/>
      </g>
     </g>
     <g id="text_4">
      <!-- 15 -->
      <g transform="translate(400.7225 331.300562)scale(0.22 -0.22)">
       <use xlink:href="#DejaVuSans-49"/>
       <use x="63.623047" xlink:href="#DejaVuSans-53"/>
      </g>
     </g>
    </g>
   </g>
   <g id="matplotlib.axis_2">
    <g id="ytick_1">
     <g id="line2d_9">
      <path clip-path="url(#p8b6e2f557d)" d="M 57.6 307.584 
L 414.72 307.584 
" style="fill:none;stroke:#000000;stroke-dasharray:0.74,0.32;stroke-dashoffset:0;stroke-linecap:round;stroke-width:0.2;"/>
     </g>
     <g id="line2d_10">
      <defs>
       <path d="M 0 0 
L -3.5 0 
" id="m09ffbe8d5b" style="stroke:#000000;stroke-width:0.8;"/>
      </defs>
      <g>
       <use style="stroke:#000000;stroke-width:0.8;" x="57.6" xlink:href="#m09ffbe8d5b" y="307.584"/>
      </g>
     </g>
     <g id="text_5">
      <!-- 0 -->
      <g transform="translate(36.6025 315.942281)scale(0.22 -0.22)">
       <use xlink:href="#DejaVuSans-48"/>
      </g>
     </g>
    </g>
    <g id="ytick_2">
     <g id="line2d_11">
      <path clip-path="url(#p8b6e2f557d)" d="M 57.6 260.064 
L 414.72 260.064 
" style="fill:none;stroke:#000000;stroke-dasharray:0.74,0.32;stroke-dashoffset:0;stroke-linecap:round;stroke-width:0.2;"/>
     </g>
     <g id="line2d_12">
      <g>
       <use style="stroke:#000000;stroke-width:0.8;" x="57.6" xlink:href="#m09ffbe8d5b" y="260.064"/>
      </g>
     </g>
     <g id="text_6">
      <!-- 25 -->
      <defs>
       <path d="M 19.1875 8.296875 
L 53.609375 8.296875 
L 53.609375 0 
L 7.328125 0 
L 7.328125 8.296875 
Q 12.9375 14.109375 22.625 23.890625 
Q 32.328125 33.6875 34.8125 36.53125 
Q 39.546875 41.84375 41.421875 45.53125 
Q 43.3125 49.21875 43.3125 52.78125 
Q 43.3125 58.59375 39.234375 62.25 
Q 35.15625 65.921875 28.609375 65.921875 
Q 23.96875 65.921875 18.8125 64.3125 
Q 13.671875 62.703125 7.8125 59.421875 
L 7.8125 69.390625 
Q 13.765625 71.78125 18.9375 73 
Q 24.125 74.21875 28.421875 74.21875 
Q 39.75 74.21875 46.484375 68.546875 
Q 53.21875 62.890625 53.21875 53.421875 
Q 53.21875 48.921875 51.53125 44.890625 
Q 49.859375 40.875 45.40625 35.40625 
Q 44.1875 33.984375 37.640625 27.21875 
Q 31.109375 20.453125 19.1875 8.296875 
z
" id="DejaVuSans-50"/>
      </defs>
      <g transform="translate(22.605 268.422281)scale(0.22 -0.22)">
       <use xlink:href="#DejaVuSans-50"/>
       <use x="63.623047" xlink:href="#DejaVuSans-53"/>
      </g>
     </g>
    </g>
    <g id="ytick_3">
     <g id="line2d_13">
      <path clip-path="url(#p8b6e2f557d)" d="M 57.6 212.544 
L 414.72 212.544 
" style="fill:none;stroke:#000000;stroke-dasharray:0.74,0.32;stroke-dashoffset:0;stroke-linecap:round;stroke-width:0.2;"/>
     </g>
     <g id="line2d_14">
      <g>
       <use style="stroke:#000000;stroke-width:0.8;" x="57.6" xlink:href="#m09ffbe8d5b" y="212.544"/>
      </g>
     </g>
     <g id="text_7">
      <!-- 50 -->
      <g transform="translate(22.605 220.902281)scale(0.22 -0.22)">
       <use xlink:href="#DejaVuSans-53"/>
       <use x="63.623047" xlink:href="#DejaVuSans-48"/>
      </g>
     </g>
    </g>
    <g id="ytick_4">
     <g id="line2d_15">
      <path clip-path="url(#p8b6e2f557d)" d="M 57.6 165.024 
L 414.72 165.024 
" style="fill:none;stroke:#000000;stroke-dasharray:0.74,0.32;stroke-dashoffset:0;stroke-linecap:round;stroke-width:0.2;"/>
     </g>
     <g id="line2d_16">
      <g>
       <use style="stroke:#000000;stroke-width:0.8;" x="57.6" xlink:href="#m09ffbe8d5b" y="165.024"/>
      </g>
     </g>
     <g id="text_8">
      <!-- 75 -->
      <defs>
       <path d="M 8.203125 72.90625 
L 55.078125 72.90625 
L 55.078125 68.703125 
L 28.609375 0 
L 18.3125 0 
L 43.21875 64.59375 
L 8.203125 64.59375 
z
" id="DejaVuSans-55"/>
      </defs>
      <g transform="translate(22.605 173.382281)scale(0.22 -0.22)">
       <use xlink:href="#DejaVuSans-55"/>
       <use x="63.623047" xlink:href="#DejaVuSans-53"/>
      </g>
     </g>
    </g>
    <g id="ytick_5">
     <g id="line2d_17">
      <path clip-path="url(#p8b6e2f557d)" d="M 57.6 117.504 
L 414.72 117.504 
" style="fill:none;stroke:#000000;stroke-dasharray:0.74,0.32;stroke-dashoffset:0;stroke-linecap:round;stroke-width:0.2;"/>
     </g>
     <g id="line2d_18">
      <g>
       <use style="stroke:#000000;stroke-width:0.8;" x="57.6" xlink:href="#m09ffbe8d5b" y="117.504"/>
      </g>
     </g>
     <g id="text_9">
      <!-- 100 -->
      <g transform="translate(8.6075 125.862281)scale(0.22 -0.22)">
       <use xlink:href="#DejaVuSans-49"/>
       <use x="63.623047" xlink:href="#DejaVuSans-48"/>
       <use x="127.246094" xlink:href="#DejaVuSans-48"/>
      </g>
     </g>
    </g>
    <g id="ytick_6">
     <g id="line2d_19">
      <path clip-path="url(#p8b6e2f557d)" d="M 57.6 69.984 
L 414.72 69.984 
" style="fill:none;stroke:#000000;stroke-dasharray:0.74,0.32;stroke-dashoffset:0;stroke-linecap:round;stroke-width:0.2;"/>
     </g>
     <g id="line2d_20">
      <g>
       <use style="stroke:#000000;stroke-width:0.8;" x="57.6" xlink:href="#m09ffbe8d5b" y="69.984"/>
      </g>
     </g>
     <g id="text_10">
      <!-- 125 -->
      <g transform="translate(8.6075 78.342281)scale(0.22 -0.22)">
       <use xlink:href="#DejaVuSans-49"/>
       <use x="63.623047" xlink:href="#DejaVuSans-50"/>
       <use x="127.246094" xlink:href="#DejaVuSans-53"/>
      </g>
     </g>
    </g>
   </g>
   <g id="line2d_21">
    <path clip-path="url(#p8b6e2f557d)" d="M 57.6 304.7328 
L 60.245333 294.287787 
L 62.890667 284.072747 
L 65.536 274.08768 
L 68.181333 264.332587 
L 70.826667 254.807467 
L 73.472 245.51232 
L 76.117333 236.447147 
L 78.762667 227.611947 
L 81.408 219.00672 
L 84.053333 210.631467 
L 86.698667 202.486187 
L 89.344 194.57088 
L 91.989333 186.885547 
L 94.634667 179.430187 
L 97.28 172.2048 
L 99.925333 165.209387 
L 102.570667 158.443947 
L 105.216 151.90848 
L 107.861333 145.602987 
L 110.506667 139.527467 
L 113.152 133.68192 
L 115.797333 128.066347 
L 118.442667 122.680747 
L 121.088 117.52512 
L 123.733333 112.599467 
L 126.378667 107.903787 
L 129.024 103.43808 
L 131.669333 99.202347 
L 134.314667 95.196587 
L 136.96 91.4208 
L 139.605333 87.874987 
L 142.250667 84.559147 
L 144.896 81.47328 
L 147.541333 78.617387 
L 150.186667 75.991467 
L 152.832 73.59552 
L 155.477333 71.429547 
L 158.122667 69.493547 
L 160.768 67.78752 
L 163.413333 66.311467 
L 166.058667 65.065387 
L 168.704 64.04928 
L 171.349333 63.263147 
L 173.994667 62.706987 
L 176.64 62.3808 
L 179.285333 62.284587 
L 181.930667 62.418347 
L 184.576 62.78208 
L 187.221333 63.375787 
L 189.866667 64.199467 
L 192.512 65.25312 
L 195.157333 66.536747 
L 197.802667 68.050347 
L 200.448 69.79392 
L 203.093333 71.767467 
L 205.738667 73.970987 
L 208.384 76.40448 
L 211.029333 79.067947 
L 213.674667 81.961387 
L 216.32 85.0848 
L 218.965333 88.438187 
L 221.610667 92.021547 
L 224.256 95.83488 
L 226.901333 99.878187 
L 229.546667 104.151467 
L 232.192 108.65472 
L 234.837333 113.387947 
L 237.482667 118.351147 
L 240.128 123.54432 
L 242.773333 128.967467 
L 245.418667 134.620587 
L 248.064 140.50368 
L 250.709333 146.616747 
L 253.354667 152.959787 
L 256 159.5328 
L 258.645333 166.335787 
L 261.290667 173.368747 
L 263.936 180.63168 
L 266.581333 188.124587 
L 269.226667 195.847467 
L 271.872 203.80032 
L 274.517333 211.983147 
L 277.162667 220.395947 
L 279.808 229.03872 
L 282.453333 237.911467 
L 285.098667 247.014187 
L 287.744 256.34688 
L 290.389333 265.909547 
L 293.034667 275.702187 
L 295.68 285.7248 
L 298.325333 295.977387 
L 300.970667 306.459947 
L 303.616 317.17248 
L 306.261333 328.114987 
L 308.906667 339.287467 
L 310.603151 346.6 
" style="fill:none;stroke:#1f77b4;stroke-linecap:square;stroke-width:2;"/>
   </g>
   <g id="line2d_22">
    <path clip-path="url(#p8b6e2f557d)" d="M 57.6 267.47712 
L 60.245333 261.05664 
L 62.890667 254.63616 
L 65.536 248.21568 
L 68.181333 241.7952 
L 70.826667 235.37472 
L 73.472 228.95424 
L 76.117333 222.53376 
L 78.762667 216.11328 
L 81.408 209.6928 
L 84.053333 203.27232 
L 86.698667 196.85184 
L 89.344 190.43136 
L 91.989333 184.01088 
L 94.634667 177.5904 
L 97.28 171.16992 
L 99.925333 164.74944 
L 102.570667 158.32896 
L 105.216 151.90848 
L 107.861333 145.488 
L 110.506667 139.06752 
L 113.152 132.64704 
L 115.797333 126.22656 
L 118.442667 119.80608 
L 121.088 113.3856 
L 123.733333 106.96512 
L 126.378667 100.54464 
L 129.024 94.12416 
L 131.669333 87.70368 
L 134.314667 81.2832 
L 136.96 74.86272 
L 139.605333 68.44224 
L 142.250667 62.02176 
L 144.896 55.60128 
L 147.541333 49.1808 
L 150.186667 42.76032 
L 152.832 36.33984 
L 155.477333 29.91936 
L 158.122667 23.49888 
L 160.768 17.0784 
L 163.413333 10.65792 
L 166.058667 4.23744 
L 168.21657 -1 
" style="fill:none;stroke:#ff7f0e;stroke-linecap:square;stroke-width:2;"/>
   </g>
   <g id="text_11">
    <!-- x -->
    <defs>
     <path d="M 54.890625 54.6875 
L 35.109375 28.078125 
L 55.90625 0 
L 45.3125 0 
L 29.390625 21.484375 
L 13.484375 0 
L 2.875 0 
L 24.125 28.609375 
L 4.6875 54.6875 
L 15.28125 54.6875 
L 29.78125 35.203125 
L 44.28125 54.6875 
z
" id="DejaVuSans-120"/>
    </defs>
    <g transform="translate(401.69875 298.08)scale(0.22 -0.22)">
     <use xlink:href="#DejaVuSans-120"/>
    </g>
   </g>
   <g id="text_12">
    <!-- y -->
    <defs>
     <path d="M 32.171875 -5.078125 
Q 28.375 -14.84375 24.75 -17.8125 
Q 21.140625 -20.796875 15.09375 -20.796875 
L 7.90625 -20.796875 
L 7.90625 -13.28125 
L 13.1875 -13.28125 
Q 16.890625 -13.28125 18.9375 -11.515625 
Q 21 -9.765625 23.484375 -3.21875 
L 25.09375 0.875 
L 2.984375 54.6875 
L 12.5 54.6875 
L 29.59375 11.921875 
L 46.6875 54.6875 
L 56.203125 54.6875 
z
" id="DejaVuSans-121"/>
    </defs>
    <g transform="translate(81.408 58.188563)scale(0.22 -0.22)">
     <use xlink:href="#DejaVuSans-121"/>
    </g>
   </g>
  </g>
 </g>
 <defs>
  <clipPath id="p8b6e2f557d">
   <rect height="266.112" width="357.12" x="57.6" y="41.472"/>
  </clipPath>
 </defs>
</svg>
