<?xml version="1.0" encoding="utf-8" standalone="no"?>
<!DOCTYPE svg PUBLIC "-//W3C//DTD SVG 1.1//EN"
  "http://www.w3.org/Graphics/SVG/1.1/DTD/svg11.dtd">
<!-- Created with matplotlib (https://matplotlib.org/) -->
<svg height="345.6pt" version="1.1" viewBox="0 0 460.8 345.6" width="460.8pt" xmlns="http://www.w3.org/2000/svg" xmlns:xlink="http://www.w3.org/1999/xlink">
 <defs>
  <style type="text/css">
*{stroke-linecap:butt;stroke-linejoin:round;}
  </style>
 </defs>
 <g id="figure_1">
  <g id="patch_1">
   <path d="M 0 345.6 
L 460.8 345.6 
L 460.8 0 
L 0 0 
z
" style="fill:#ffffff;"/>
  </g>
  <g id="axes_1">
   <g id="patch_2">
    <path d="M 138.24 276.48 
L 414.72 276.48 
L 414.72 41.472 
L 138.24 41.472 
z
" style="fill:#ffffff;"/>
   </g>
   <g id="patch_3">
    <path d="M 414.72 276.48 
L 400.896 282.3552 
L 405.0432 276.597504 
L 138.24 276.597504 
L 138.24 276.362496 
L 405.0432 276.362496 
L 400.896 270.6048 
z
" style="stroke:#000000;stroke-linejoin:miter;"/>
   </g>
   <g id="patch_4">
    <path d="M 138.24 41.472 
L 144.133762 55.252463 
L 138.267648 51.118324 
L 138.267648 276.48 
L 138.212352 276.48 
L 138.212352 51.118324 
L 132.346238 55.252463 
z
" style="stroke:#000000;stroke-linejoin:miter;"/>
   </g>
   <g id="matplotlib.axis_1">
    <g id="xtick_1">
     <g id="line2d_1">
      <defs>
       <path d="M 0 0 
L 0 3.5 
" id="me8d00dcb28" style="stroke:#000000;stroke-width:0.8;"/>
      </defs>
      <g>
       <use style="stroke:#000000;stroke-width:0.8;" x="248.832" xlink:href="#me8d00dcb28" y="276.48"/>
      </g>
     </g>
     <g id="text_1">
      <!-- $a$ -->
      <defs>
       <path d="M 53.71875 31.203125 
L 47.609375 0 
L 38.625 0 
L 40.28125 8.296875 
Q 36.328125 3.421875 31.265625 1 
Q 26.21875 -1.421875 20.015625 -1.421875 
Q 13.03125 -1.421875 8.5625 2.84375 
Q 4.109375 7.125 4.109375 13.8125 
Q 4.109375 23.390625 11.75 28.953125 
Q 19.390625 34.515625 32.8125 34.515625 
L 45.3125 34.515625 
L 45.796875 36.921875 
Q 45.90625 37.3125 45.953125 37.765625 
Q 46 38.234375 46 39.203125 
Q 46 43.5625 42.453125 45.96875 
Q 38.921875 48.390625 32.515625 48.390625 
Q 28.125 48.390625 23.5 47.265625 
Q 18.890625 46.140625 14.015625 43.890625 
L 15.578125 52.203125 
Q 20.65625 54.109375 25.515625 55.046875 
Q 30.375 56 34.90625 56 
Q 44.578125 56 49.625 51.796875 
Q 54.6875 47.609375 54.6875 39.59375 
Q 54.6875 37.984375 54.4375 35.8125 
Q 54.203125 33.640625 53.71875 31.203125 
z
M 44 27.484375 
L 35.015625 27.484375 
Q 23.96875 27.484375 18.671875 24.53125 
Q 13.375 21.578125 13.375 15.375 
Q 13.375 11.078125 16.078125 8.640625 
Q 18.796875 6.203125 23.578125 6.203125 
Q 30.90625 6.203125 36.375 11.453125 
Q 41.84375 16.703125 43.609375 25.484375 
z
" id="DejaVuSans-Oblique-97"/>
      </defs>
      <g transform="translate(242.012 300.196562)scale(0.22 -0.22)">
       <use xlink:href="#DejaVuSans-Oblique-97"/>
      </g>
     </g>
    </g>
    <g id="xtick_2">
     <g id="line2d_2">
      <g>
       <use style="stroke:#000000;stroke-width:0.8;" x="304.128" xlink:href="#me8d00dcb28" y="276.48"/>
      </g>
     </g>
     <g id="text_2">
      <!-- $a+\Delta x$ -->
      <defs>
       <path d="M 46 62.703125 
L 46 35.5 
L 73.1875 35.5 
L 73.1875 27.203125 
L 46 27.203125 
L 46 0 
L 37.796875 0 
L 37.796875 27.203125 
L 10.59375 27.203125 
L 10.59375 35.5 
L 37.796875 35.5 
L 37.796875 62.703125 
z
" id="DejaVuSans-43"/>
       <path d="M 34.1875 63.1875 
L 14.15625 8.203125 
L 54.25 8.203125 
z
M 0.78125 0 
L 28.609375 72.90625 
L 39.796875 72.90625 
L 67.578125 0 
z
" id="DejaVuSans-916"/>
       <path d="M 60.015625 54.6875 
L 34.90625 27.875 
L 50.296875 0 
L 39.984375 0 
L 28.421875 21.6875 
L 8.296875 0 
L -2.59375 0 
L 24.3125 28.8125 
L 10.015625 54.6875 
L 20.3125 54.6875 
L 30.8125 34.90625 
L 49.125 54.6875 
z
" id="DejaVuSans-Oblique-120"/>
      </defs>
      <g transform="translate(269.808 300.196562)scale(0.22 -0.22)">
       <use transform="translate(0 0.09375)" xlink:href="#DejaVuSans-Oblique-97"/>
       <use transform="translate(80.761719 0.09375)" xlink:href="#DejaVuSans-43"/>
       <use transform="translate(184.033203 0.09375)" xlink:href="#DejaVuSans-916"/>
       <use transform="translate(252.441406 0.09375)" xlink:href="#DejaVuSans-Oblique-120"/>
      </g>
     </g>
    </g>
   </g>
   <g id="matplotlib.axis_2">
    <g id="ytick_1">
     <g id="line2d_3">
      <defs>
       <path d="M 0 0 
L -3.5 0 
" id="me5850531ab" style="stroke:#000000;stroke-width:0.8;"/>
      </defs>
      <g>
       <use style="stroke:#000000;stroke-width:0.8;" x="138.24" xlink:href="#me5850531ab" y="110.30425"/>
      </g>
     </g>
     <g id="text_3">
      <!-- $f(a)$ -->
      <defs>
       <path d="M 47.796875 75.984375 
L 46.390625 68.5 
L 37.796875 68.5 
Q 32.90625 68.5 30.6875 66.578125 
Q 28.46875 64.65625 27.390625 59.515625 
L 26.421875 54.6875 
L 41.21875 54.6875 
L 39.890625 47.703125 
L 25.09375 47.703125 
L 15.828125 0 
L 6.78125 0 
L 16.109375 47.703125 
L 7.515625 47.703125 
L 8.796875 54.6875 
L 17.390625 54.6875 
L 18.109375 58.5 
Q 19.96875 68.171875 24.625 72.078125 
Q 29.296875 75.984375 39.3125 75.984375 
z
" id="DejaVuSans-Oblique-102"/>
       <path d="M 31 75.875 
Q 24.46875 64.65625 21.28125 53.65625 
Q 18.109375 42.671875 18.109375 31.390625 
Q 18.109375 20.125 21.3125 9.0625 
Q 24.515625 -2 31 -13.1875 
L 23.1875 -13.1875 
Q 15.875 -1.703125 12.234375 9.375 
Q 8.59375 20.453125 8.59375 31.390625 
Q 8.59375 42.28125 12.203125 53.3125 
Q 15.828125 64.359375 23.1875 75.875 
z
" id="DejaVuSans-40"/>
       <path d="M 8.015625 75.875 
L 15.828125 75.875 
Q 23.140625 64.359375 26.78125 53.3125 
Q 30.421875 42.28125 30.421875 31.390625 
Q 30.421875 20.453125 26.78125 9.375 
Q 23.140625 -1.703125 15.828125 -13.1875 
L 8.015625 -13.1875 
Q 14.5 -2 17.703125 9.0625 
Q 20.90625 20.125 20.90625 31.390625 
Q 20.90625 42.671875 17.703125 53.65625 
Q 14.5 64.65625 8.015625 75.875 
z
" id="DejaVuSans-41"/>
      </defs>
      <g transform="translate(92.74 118.662531)scale(0.22 -0.22)">
       <use transform="translate(0 0.015625)" xlink:href="#DejaVuSans-Oblique-102"/>
       <use transform="translate(35.205078 0.015625)" xlink:href="#DejaVuSans-40"/>
       <use transform="translate(74.21875 0.015625)" xlink:href="#DejaVuSans-Oblique-97"/>
       <use transform="translate(135.498047 0.015625)" xlink:href="#DejaVuSans-41"/>
      </g>
     </g>
    </g>
    <g id="ytick_2">
     <g id="line2d_4">
      <g>
       <use style="stroke:#000000;stroke-width:0.8;" x="138.24" xlink:href="#me5850531ab" y="140.798068"/>
      </g>
     </g>
     <g id="text_4">
      <!-- $f(a+\Delta x)$ -->
      <g transform="translate(37.74 149.156349)scale(0.22 -0.22)">
       <use transform="translate(0 0.015625)" xlink:href="#DejaVuSans-Oblique-102"/>
       <use transform="translate(35.205078 0.015625)" xlink:href="#DejaVuSans-40"/>
       <use transform="translate(74.21875 0.015625)" xlink:href="#DejaVuSans-Oblique-97"/>
       <use transform="translate(154.980469 0.015625)" xlink:href="#DejaVuSans-43"/>
       <use transform="translate(258.251953 0.015625)" xlink:href="#DejaVuSans-916"/>
       <use transform="translate(326.660156 0.015625)" xlink:href="#DejaVuSans-Oblique-120"/>
       <use transform="translate(385.839844 0.015625)" xlink:href="#DejaVuSans-41"/>
      </g>
     </g>
    </g>
   </g>
   <g id="line2d_5">
    <path clip-path="url(#p387db7b3e9)" d="M 193.536 41.472 
L 199.121455 52.511472 
L 204.706909 62.128383 
L 210.292364 70.604158 
L 215.877818 78.147976 
L 221.463273 84.918994 
L 227.048727 91.040742 
L 232.634182 96.610763 
L 238.219636 101.707247 
L 243.805091 106.393697 
L 249.390545 110.722302 
L 254.976 114.736402 
L 260.561455 118.472324 
L 266.146909 121.960782 
L 271.732364 125.227942 
L 277.317818 128.296254 
L 282.903273 131.185103 
L 288.488727 133.911328 
L 294.074182 136.489636 
L 299.659636 138.932937 
L 305.245091 141.252615 
L 310.830545 143.458756 
L 316.416 145.56033 
L 322.001455 147.565344 
L 327.586909 149.480973 
L 333.172364 151.313667 
L 338.757818 153.069242 
L 344.343273 154.75296 
L 349.928727 156.369593 
L 355.514182 157.92348 
L 361.099636 159.418578 
L 366.685091 160.858503 
L 372.270545 162.246566 
L 377.856 163.585808 
L 383.441455 164.879026 
L 389.026909 166.128797 
L 394.612364 167.337499 
L 400.197818 168.507335 
L 405.783273 169.640343 
L 411.368727 170.738415 
L 416.954182 171.803312 
L 422.539636 172.836671 
L 428.125091 173.840019 
L 433.710545 174.814779 
L 439.296 175.762286 
L 444.881455 176.683785 
L 450.466909 177.580444 
L 456.052364 178.453361 
L 461.637818 179.303565 
L 461.8 179.327621 
" style="fill:none;stroke:#1f77b4;stroke-linecap:square;stroke-width:2;"/>
   </g>
   <g id="line2d_6">
    <path clip-path="url(#p387db7b3e9)" d="M 248.832 276.48 
L 248.832 110.30425 
" style="fill:none;stroke:#000000;stroke-dasharray:3.7,1.6;stroke-dashoffset:0;"/>
   </g>
   <g id="line2d_7">
    <path clip-path="url(#p387db7b3e9)" d="M 138.24 110.30425 
L 248.832 110.30425 
" style="fill:none;stroke:#000000;stroke-dasharray:3.7,1.6;stroke-dashoffset:0;"/>
   </g>
   <g id="line2d_8">
    <path clip-path="url(#p387db7b3e9)" d="M 304.128 276.48 
L 304.128 140.798068 
" style="fill:none;stroke:#000000;stroke-dasharray:3.7,1.6;stroke-dashoffset:0;"/>
   </g>
   <g id="line2d_9">
    <path clip-path="url(#p387db7b3e9)" d="M 138.24 140.798068 
L 304.128 140.798068 
" style="fill:none;stroke:#000000;stroke-dasharray:3.7,1.6;stroke-dashoffset:0;"/>
   </g>
   <g id="text_5">
    <!-- x -->
    <defs>
     <path d="M 54.890625 54.6875 
L 35.109375 28.078125 
L 55.90625 0 
L 45.3125 0 
L 29.390625 21.484375 
L 13.484375 0 
L 2.875 0 
L 24.125 28.609375 
L 4.6875 54.6875 
L 15.28125 54.6875 
L 29.78125 35.203125 
L 44.28125 54.6875 
z
" id="DejaVuSans-120"/>
    </defs>
    <g transform="translate(401.69875 299.9808)scale(0.22 -0.22)">
     <use xlink:href="#DejaVuSans-120"/>
    </g>
   </g>
   <g id="text_6">
    <!-- y -->
    <defs>
     <path d="M 32.171875 -5.078125 
Q 28.375 -14.84375 24.75 -17.8125 
Q 21.140625 -20.796875 15.09375 -20.796875 
L 7.90625 -20.796875 
L 7.90625 -13.28125 
L 13.1875 -13.28125 
Q 16.890625 -13.28125 18.9375 -11.515625 
Q 21 -9.765625 23.484375 -3.21875 
L 25.09375 0.875 
L 2.984375 54.6875 
L 12.5 54.6875 
L 29.59375 11.921875 
L 46.6875 54.6875 
L 56.203125 54.6875 
z
" id="DejaVuSans-121"/>
    </defs>
    <g transform="translate(110.592 58.188562)scale(0.22 -0.22)">
     <use xlink:href="#DejaVuSans-121"/>
    </g>
   </g>
  </g>
 </g>
 <defs>
  <clipPath id="p387db7b3e9">
   <rect height="235.008" width="276.48" x="138.24" y="41.472"/>
  </clipPath>
 </defs>
</svg>
