<?xml version="1.0" encoding="utf-8" standalone="no"?>
<!DOCTYPE svg PUBLIC "-//W3C//DTD SVG 1.1//EN"
  "http://www.w3.org/Graphics/SVG/1.1/DTD/svg11.dtd">
<!-- Created with matplotlib (https://matplotlib.org/) -->
<svg height="345.6pt" version="1.1" viewBox="0 0 460.8 345.6" width="460.8pt" xmlns="http://www.w3.org/2000/svg" xmlns:xlink="http://www.w3.org/1999/xlink">
 <defs>
  <style type="text/css">
*{stroke-linecap:butt;stroke-linejoin:round;}
  </style>
 </defs>
 <g id="figure_1">
  <g id="patch_1">
   <path d="M 0 345.6 
L 460.8 345.6 
L 460.8 0 
L 0 0 
z
" style="fill:#ffffff;"/>
  </g>
  <g id="axes_1">
   <g id="patch_2">
    <path d="M 57.6 307.584 
L 414.72 307.584 
L 414.72 41.472 
L 57.6 41.472 
z
" style="fill:#ffffff;"/>
   </g>
   <g id="PolyCollection_1">
    <path clip-path="url(#p5e0833a8db)" d="M 182.592 213.1281 
L 182.592 64.4796 
L 183.674182 63.288429 
L 184.756364 62.54937 
L 185.838545 62.231084 
L 186.920727 62.303527 
L 188.002909 62.73792 
L 189.085091 63.506719 
L 190.167273 64.583593 
L 191.249455 65.943392 
L 192.331636 67.562124 
L 193.413818 69.416924 
L 194.496 71.48603 
L 195.578182 73.748752 
L 196.660364 76.185451 
L 197.742545 78.777505 
L 198.824727 81.507285 
L 199.906909 84.358129 
L 200.989091 87.314312 
L 202.071273 90.361021 
L 203.153455 93.484326 
L 204.235636 96.671155 
L 205.317818 99.909265 
L 206.4 103.187215 
L 207.482182 106.49434 
L 208.564364 109.820722 
L 209.646545 113.157165 
L 210.728727 116.495165 
L 211.810909 119.826886 
L 212.893091 123.14513 
L 213.975273 126.443312 
L 215.057455 129.715431 
L 216.139636 132.956043 
L 217.221818 136.160236 
L 218.304 139.3236 
L 219.386182 142.442201 
L 220.468364 145.512555 
L 221.550545 148.531598 
L 222.632727 151.496662 
L 223.714909 154.405444 
L 224.797091 157.255983 
L 225.879273 160.046629 
L 226.961455 162.776021 
L 228.043636 165.443051 
L 229.125818 168.046848 
L 230.208 170.586741 
L 231.290182 173.062236 
L 232.372364 175.472992 
L 233.454545 177.818786 
L 234.536727 180.099493 
L 235.618909 182.315055 
L 236.701091 184.465455 
L 237.783273 186.550689 
L 238.865455 188.570742 
L 239.947636 190.525554 
L 241.029818 192.415 
L 242.112 194.238859 
L 243.194182 195.996788 
L 244.276364 197.688294 
L 245.358545 199.312707 
L 246.440727 200.869152 
L 247.522909 202.356526 
L 248.605091 203.773465 
L 249.687273 205.11832 
L 250.769455 206.389129 
L 251.851636 207.58359 
L 252.933818 208.699035 
L 254.016 209.7324 
L 255.098182 210.6802 
L 256.180364 211.538502 
L 257.262545 212.302896 
L 258.344727 212.96847 
L 259.426909 213.529779 
L 260.509091 213.980823 
L 261.591273 214.315017 
L 262.673455 214.525162 
L 263.755636 214.603424 
L 264.837818 214.541297 
L 265.92 214.329585 
L 267.002182 213.958372 
L 268.084364 213.416991 
L 269.166545 212.694001 
L 270.248727 211.777161 
L 271.330909 210.653397 
L 272.413091 209.30878 
L 273.495273 207.728497 
L 274.577455 205.896822 
L 275.659636 203.797094 
L 276.741818 201.411684 
L 277.824 198.72197 
L 278.906182 195.708312 
L 279.988364 192.350021 
L 281.070545 188.625335 
L 282.152727 184.511389 
L 283.234909 179.98419 
L 284.317091 175.018589 
L 285.399273 169.588254 
L 286.481455 163.665643 
L 287.563636 157.221976 
L 288.645818 150.227207 
L 289.728 142.65 
L 289.728 193.5855 
L 289.728 193.5855 
L 288.645818 191.691198 
L 287.563636 189.942506 
L 286.481455 188.331589 
L 285.399273 186.850936 
L 284.317091 185.493353 
L 283.234909 184.251953 
L 282.152727 183.120153 
L 281.070545 182.091666 
L 279.988364 181.160495 
L 278.906182 180.320922 
L 277.824 179.567507 
L 276.741818 178.895079 
L 275.659636 178.298726 
L 274.577455 177.773794 
L 273.495273 177.315876 
L 272.413091 176.920805 
L 271.330909 176.584651 
L 270.248727 176.30371 
L 269.166545 176.0745 
L 268.084364 175.893752 
L 267.002182 175.758407 
L 265.92 175.665604 
L 264.837818 175.612676 
L 263.755636 175.597144 
L 262.673455 175.616709 
L 261.591273 175.669246 
L 260.509091 175.752794 
L 259.426909 175.865555 
L 258.344727 176.005883 
L 257.262545 176.172276 
L 256.180364 176.363374 
L 255.098182 176.57795 
L 254.016 176.8149 
L 252.933818 177.073241 
L 251.851636 177.352102 
L 250.769455 177.650718 
L 249.687273 177.96842 
L 248.605091 178.304634 
L 247.522909 178.658868 
L 246.440727 179.030712 
L 245.358545 179.419823 
L 244.276364 179.825927 
L 243.194182 180.248803 
L 242.112 180.688285 
L 241.029818 181.14425 
L 239.947636 181.616612 
L 238.865455 182.105315 
L 237.783273 182.610328 
L 236.701091 183.131636 
L 235.618909 183.669236 
L 234.536727 184.223127 
L 233.454545 184.793304 
L 232.372364 185.379752 
L 231.290182 185.982441 
L 230.208 186.601315 
L 229.125818 187.236288 
L 228.043636 187.887237 
L 226.961455 188.553995 
L 225.879273 189.236343 
L 224.797091 189.934004 
L 223.714909 190.646639 
L 222.632727 191.373835 
L 221.550545 192.1151 
L 220.468364 192.869861 
L 219.386182 193.63745 
L 218.304 194.4171 
L 217.221818 195.207941 
L 216.139636 196.008989 
L 215.057455 196.819142 
L 213.975273 197.637172 
L 212.893091 198.461717 
L 211.810909 199.291278 
L 210.728727 200.124209 
L 209.646545 200.958709 
L 208.564364 201.79282 
L 207.482182 202.624415 
L 206.4 203.451196 
L 205.317818 204.270684 
L 204.235636 205.080211 
L 203.153455 205.876919 
L 202.071273 206.657745 
L 200.989091 207.419422 
L 199.906909 208.158468 
L 198.824727 208.871179 
L 197.742545 209.553624 
L 196.660364 210.201637 
L 195.578182 210.810812 
L 194.496 211.376493 
L 193.413818 211.893769 
L 192.331636 212.357469 
L 191.249455 212.762152 
L 190.167273 213.102102 
L 189.085091 213.37132 
L 188.002909 213.56352 
L 186.920727 213.672118 
L 185.838545 213.690229 
L 184.756364 213.610658 
L 183.674182 213.425893 
L 182.592 213.1281 
z
" style="fill:#1f77b4;fill-opacity:0.3;"/>
   </g>
   <g id="patch_3">
    <path d="M 414.72 218.88 
L 396.864 225.5328 
L 402.2208 218.884435 
L 57.6 218.884435 
L 57.6 218.875565 
L 402.2208 218.875565 
L 396.864 212.2272 
z
" style="stroke:#000000;stroke-linejoin:miter;"/>
   </g>
   <g id="patch_4">
    <path d="M 236.16 41.472 
L 242.844463 59.24342 
L 236.177856 53.911994 
L 236.177856 307.584 
L 236.142144 307.584 
L 236.142144 53.911994 
L 229.475537 59.24342 
z
" style="stroke:#000000;stroke-linejoin:miter;"/>
   </g>
   <g id="matplotlib.axis_1">
    <g id="xtick_1">
     <g id="line2d_1">
      <defs>
       <path d="M 0 0 
L 0 3.5 
" id="m2fd05f828d" style="stroke:#000000;stroke-width:0.8;"/>
      </defs>
      <g>
       <use style="stroke:#000000;stroke-width:0.8;" x="182.592" xlink:href="#m2fd05f828d" y="218.88"/>
      </g>
     </g>
     <g id="text_1">
      <!-- $a$ -->
      <defs>
       <path d="M 53.71875 31.203125 
L 47.609375 0 
L 38.625 0 
L 40.28125 8.296875 
Q 36.328125 3.421875 31.265625 1 
Q 26.21875 -1.421875 20.015625 -1.421875 
Q 13.03125 -1.421875 8.5625 2.84375 
Q 4.109375 7.125 4.109375 13.8125 
Q 4.109375 23.390625 11.75 28.953125 
Q 19.390625 34.515625 32.8125 34.515625 
L 45.3125 34.515625 
L 45.796875 36.921875 
Q 45.90625 37.3125 45.953125 37.765625 
Q 46 38.234375 46 39.203125 
Q 46 43.5625 42.453125 45.96875 
Q 38.921875 48.390625 32.515625 48.390625 
Q 28.125 48.390625 23.5 47.265625 
Q 18.890625 46.140625 14.015625 43.890625 
L 15.578125 52.203125 
Q 20.65625 54.109375 25.515625 55.046875 
Q 30.375 56 34.90625 56 
Q 44.578125 56 49.625 51.796875 
Q 54.6875 47.609375 54.6875 39.59375 
Q 54.6875 37.984375 54.4375 35.8125 
Q 54.203125 33.640625 53.71875 31.203125 
z
M 44 27.484375 
L 35.015625 27.484375 
Q 23.96875 27.484375 18.671875 24.53125 
Q 13.375 21.578125 13.375 15.375 
Q 13.375 11.078125 16.078125 8.640625 
Q 18.796875 6.203125 23.578125 6.203125 
Q 30.90625 6.203125 36.375 11.453125 
Q 41.84375 16.703125 43.609375 25.484375 
z
" id="DejaVuSans-Oblique-97"/>
      </defs>
      <g transform="translate(175.772 242.596563)scale(0.22 -0.22)">
       <use xlink:href="#DejaVuSans-Oblique-97"/>
      </g>
     </g>
    </g>
    <g id="xtick_2">
     <g id="line2d_2">
      <g>
       <use style="stroke:#000000;stroke-width:0.8;" x="289.728" xlink:href="#m2fd05f828d" y="218.88"/>
      </g>
     </g>
     <g id="text_2">
      <!-- $b$ -->
      <defs>
       <path d="M 49.515625 33.40625 
Q 49.515625 40.484375 46.265625 44.484375 
Q 43.015625 48.484375 37.3125 48.484375 
Q 33.15625 48.484375 29.515625 46.453125 
Q 25.875 44.4375 23.1875 40.578125 
Q 20.359375 36.53125 18.71875 31.171875 
Q 17.09375 25.828125 17.09375 20.515625 
Q 17.09375 13.765625 20.28125 9.9375 
Q 23.484375 6.109375 29.109375 6.109375 
Q 33.34375 6.109375 36.953125 8.078125 
Q 40.578125 10.0625 43.3125 13.921875 
Q 46.09375 17.921875 47.796875 23.234375 
Q 49.515625 28.5625 49.515625 33.40625 
z
M 21.578125 46.390625 
Q 24.90625 50.875 29.90625 53.4375 
Q 34.90625 56 40.375 56 
Q 48.78125 56 53.734375 50.328125 
Q 58.6875 44.671875 58.6875 35.015625 
Q 58.6875 27.09375 55.78125 19.671875 
Q 52.875 12.25 47.515625 6.5 
Q 44 2.6875 39.40625 0.625 
Q 34.8125 -1.421875 29.78125 -1.421875 
Q 24.46875 -1.421875 20.5625 1.015625 
Q 16.65625 3.46875 14.203125 8.296875 
L 12.59375 0 
L 3.609375 0 
L 18.40625 75.984375 
L 27.390625 75.984375 
z
" id="DejaVuSans-Oblique-98"/>
      </defs>
      <g transform="translate(282.688 242.596563)scale(0.22 -0.22)">
       <use transform="translate(0 0.015625)" xlink:href="#DejaVuSans-Oblique-98"/>
      </g>
     </g>
    </g>
   </g>
   <g id="matplotlib.axis_2"/>
   <g id="line2d_3">
    <path clip-path="url(#p5e0833a8db)" d="M 156.173884 346.6 
L 156.301508 343.281589 
L 158.09608 301.451386 
L 159.890653 264.122467 
L 161.685226 230.97946 
L 163.479799 201.721485 
L 165.274372 176.061822 
L 167.068945 153.727562 
L 168.863518 134.459269 
L 170.65809 118.01064 
L 172.452663 104.14816 
L 174.247236 92.650766 
L 176.041809 83.309503 
L 177.836382 75.927182 
L 179.630955 70.318041 
L 181.425528 66.307404 
L 183.220101 63.731338 
L 185.014673 62.436314 
L 186.809246 62.278863 
L 188.603819 63.125239 
L 190.398392 64.851075 
L 192.192965 67.341042 
L 193.987538 70.48851 
L 195.782111 74.195204 
L 197.576683 78.370865 
L 199.371256 82.932909 
L 202.960402 92.922133 
L 208.344121 109.142641 
L 215.522412 131.111913 
L 219.111558 141.655235 
L 222.700704 151.681053 
L 226.289849 161.089429 
L 229.878995 169.821356 
L 233.468141 177.847842 
L 237.057286 185.158995 
L 240.646432 191.753111 
L 244.235578 197.625756 
L 247.824724 202.758851 
L 249.619296 205.036002 
L 251.413869 207.109761 
L 253.208442 208.969173 
L 255.003015 210.60038 
L 256.797588 211.986285 
L 258.592161 213.106211 
L 260.386734 213.935557 
L 262.181307 214.445458 
L 263.975879 214.602447 
L 265.770452 214.368108 
L 267.565025 213.698741 
L 269.359598 212.545016 
L 271.154171 210.851636 
L 272.948744 208.556992 
L 274.743317 205.592827 
L 276.537889 201.883887 
L 278.332462 197.347589 
L 280.127035 191.893674 
L 281.921608 185.423867 
L 283.716181 177.831538 
L 285.510754 169.001359 
L 287.305327 158.808962 
L 289.099899 147.1206 
L 290.894472 133.792805 
L 292.689045 118.672049 
L 294.483618 101.594398 
L 296.278191 82.385176 
L 298.072764 60.85862 
L 299.867337 36.817543 
L 302.329563 -1 
L 302.329563 -1 
" style="fill:none;stroke:#1f77b4;stroke-linecap:square;stroke-width:2;"/>
   </g>
   <g id="line2d_4">
    <path clip-path="url(#p5e0833a8db)" d="M 141.254508 -1 
L 141.944925 8.530996 
L 143.739497 31.292491 
L 145.53407 52.157223 
L 147.328643 71.236097 
L 149.123216 88.63571 
L 150.917789 104.458442 
L 152.712362 118.802534 
L 154.506935 131.762179 
L 156.301508 143.427603 
L 158.09608 153.885153 
L 159.890653 163.217383 
L 161.685226 171.503135 
L 163.479799 178.817629 
L 165.274372 185.232544 
L 167.068945 190.816109 
L 168.863518 195.633183 
L 170.65809 199.74534 
L 172.452663 203.21096 
L 174.247236 206.085308 
L 176.041809 208.420624 
L 177.836382 210.266205 
L 179.630955 211.66849 
L 181.425528 212.671149 
L 183.220101 213.315165 
L 185.014673 213.638922 
L 186.809246 213.678284 
L 188.603819 213.46669 
L 190.398392 213.035231 
L 192.192965 212.412739 
L 193.987538 211.625872 
L 197.576683 209.655284 
L 201.165829 207.296479 
L 206.549548 203.337319 
L 219.111558 193.834191 
L 224.495276 190.131265 
L 229.878995 186.792661 
L 233.468141 184.78604 
L 237.057286 182.958251 
L 240.646432 181.309722 
L 244.235578 179.841561 
L 247.824724 178.558287 
L 251.413869 177.47056 
L 255.003015 176.597905 
L 258.592161 175.971447 
L 262.181307 175.636635 
L 265.770452 175.655973 
L 267.565025 175.823315 
L 269.359598 176.111746 
L 271.154171 176.535091 
L 272.948744 177.108752 
L 274.743317 177.849793 
L 276.537889 178.777028 
L 278.332462 179.911103 
L 280.127035 181.274582 
L 281.921608 182.892033 
L 283.716181 184.790115 
L 285.510754 186.99766 
L 287.305327 189.54576 
L 289.099899 192.46785 
L 290.894472 195.799799 
L 292.689045 199.579988 
L 294.483618 203.849401 
L 296.278191 208.651706 
L 298.072764 214.033345 
L 299.867337 220.043614 
L 301.66191 226.734753 
L 303.456482 234.162026 
L 305.251055 242.383814 
L 307.045628 251.46169 
L 308.840201 261.460516 
L 310.634774 272.448517 
L 312.429347 284.497373 
L 314.22392 297.682306 
L 316.018492 312.082157 
L 317.813065 327.779479 
L 319.775863 346.6 
L 319.775863 346.6 
" style="fill:none;stroke:#ff7f0e;stroke-linecap:square;stroke-width:2;"/>
   </g>
   <g id="line2d_5">
    <path clip-path="url(#p5e0833a8db)" d="M 182.592 307.584 
L 182.592 41.472 
" style="fill:none;stroke:#000000;stroke-dasharray:0.5,0.825;stroke-dashoffset:0;stroke-width:0.5;"/>
   </g>
   <g id="line2d_6">
    <path clip-path="url(#p5e0833a8db)" d="M 289.728 307.584 
L 289.728 41.472 
" style="fill:none;stroke:#000000;stroke-dasharray:0.5,0.825;stroke-dashoffset:0;stroke-width:0.5;"/>
   </g>
   <g id="patch_5">
    <path d="M 236.16 307.584 
L 236.16 41.472 
" style="fill:none;stroke:#000000;stroke-linecap:square;stroke-linejoin:miter;stroke-width:0.8;"/>
   </g>
   <g id="patch_6">
    <path d="M 57.6 218.88 
L 414.72 218.88 
" style="fill:none;stroke:#000000;stroke-linecap:square;stroke-linejoin:miter;stroke-width:0.8;"/>
   </g>
   <g id="text_3">
    <!-- f -->
    <defs>
     <path d="M 37.109375 75.984375 
L 37.109375 68.5 
L 28.515625 68.5 
Q 23.6875 68.5 21.796875 66.546875 
Q 19.921875 64.59375 19.921875 59.515625 
L 19.921875 54.6875 
L 34.71875 54.6875 
L 34.71875 47.703125 
L 19.921875 47.703125 
L 19.921875 0 
L 10.890625 0 
L 10.890625 47.703125 
L 2.296875 47.703125 
L 2.296875 54.6875 
L 10.890625 54.6875 
L 10.890625 58.5 
Q 10.890625 67.625 15.140625 71.796875 
Q 19.390625 75.984375 28.609375 75.984375 
z
" id="DejaVuSans-102"/>
    </defs>
    <g style="fill:#1f77b4;" transform="translate(307.584 130.176)scale(0.22 -0.22)">
     <use xlink:href="#DejaVuSans-102"/>
    </g>
   </g>
   <g id="text_4">
    <!-- g -->
    <defs>
     <path d="M 45.40625 27.984375 
Q 45.40625 37.75 41.375 43.109375 
Q 37.359375 48.484375 30.078125 48.484375 
Q 22.859375 48.484375 18.828125 43.109375 
Q 14.796875 37.75 14.796875 27.984375 
Q 14.796875 18.265625 18.828125 12.890625 
Q 22.859375 7.515625 30.078125 7.515625 
Q 37.359375 7.515625 41.375 12.890625 
Q 45.40625 18.265625 45.40625 27.984375 
z
M 54.390625 6.78125 
Q 54.390625 -7.171875 48.1875 -13.984375 
Q 42 -20.796875 29.203125 -20.796875 
Q 24.46875 -20.796875 20.265625 -20.09375 
Q 16.0625 -19.390625 12.109375 -17.921875 
L 12.109375 -9.1875 
Q 16.0625 -11.328125 19.921875 -12.34375 
Q 23.78125 -13.375 27.78125 -13.375 
Q 36.625 -13.375 41.015625 -8.765625 
Q 45.40625 -4.15625 45.40625 5.171875 
L 45.40625 9.625 
Q 42.625 4.78125 38.28125 2.390625 
Q 33.9375 0 27.875 0 
Q 17.828125 0 11.671875 7.65625 
Q 5.515625 15.328125 5.515625 27.984375 
Q 5.515625 40.671875 11.671875 48.328125 
Q 17.828125 56 27.875 56 
Q 33.9375 56 38.28125 53.609375 
Q 42.625 51.21875 45.40625 46.390625 
L 45.40625 54.6875 
L 54.390625 54.6875 
z
" id="DejaVuSans-103"/>
    </defs>
    <g style="fill:#ff7f0e;" transform="translate(307.584 245.4912)scale(0.22 -0.22)">
     <use xlink:href="#DejaVuSans-103"/>
    </g>
   </g>
   <g id="text_5">
    <!-- x -->
    <defs>
     <path d="M 54.890625 54.6875 
L 35.109375 28.078125 
L 55.90625 0 
L 45.3125 0 
L 29.390625 21.484375 
L 13.484375 0 
L 2.875 0 
L 24.125 28.609375 
L 4.6875 54.6875 
L 15.28125 54.6875 
L 29.78125 35.203125 
L 44.28125 54.6875 
z
" id="DejaVuSans-120"/>
    </defs>
    <g transform="translate(401.69875 213.417647)scale(0.22 -0.22)">
     <use xlink:href="#DejaVuSans-120"/>
    </g>
   </g>
   <g id="text_6">
    <!-- y -->
    <defs>
     <path d="M 32.171875 -5.078125 
Q 28.375 -14.84375 24.75 -17.8125 
Q 21.140625 -20.796875 15.09375 -20.796875 
L 7.90625 -20.796875 
L 7.90625 -13.28125 
L 13.1875 -13.28125 
Q 16.890625 -13.28125 18.9375 -11.515625 
Q 21 -9.765625 23.484375 -3.21875 
L 25.09375 0.875 
L 2.984375 54.6875 
L 12.5 54.6875 
L 29.59375 11.921875 
L 46.6875 54.6875 
L 56.203125 54.6875 
z
" id="DejaVuSans-121"/>
    </defs>
    <g transform="translate(218.304 58.188563)scale(0.22 -0.22)">
     <use xlink:href="#DejaVuSans-121"/>
    </g>
   </g>
  </g>
 </g>
 <defs>
  <clipPath id="p5e0833a8db">
   <rect height="266.112" width="357.12" x="57.6" y="41.472"/>
  </clipPath>
 </defs>
</svg>
