<?xml version="1.0" encoding="utf-8" standalone="no"?>
<!DOCTYPE svg PUBLIC "-//W3C//DTD SVG 1.1//EN"
  "http://www.w3.org/Graphics/SVG/1.1/DTD/svg11.dtd">
<!-- Created with matplotlib (https://matplotlib.org/) -->
<svg height="345.6pt" version="1.1" viewBox="0 0 460.8 345.6" width="460.8pt" xmlns="http://www.w3.org/2000/svg" xmlns:xlink="http://www.w3.org/1999/xlink">
 <defs>
  <style type="text/css">
*{stroke-linecap:butt;stroke-linejoin:round;}
  </style>
 </defs>
 <g id="figure_1">
  <g id="patch_1">
   <path d="M 0 345.6 
L 460.8 345.6 
L 460.8 0 
L 0 0 
z
" style="fill:#ffffff;"/>
  </g>
  <g id="axes_1">
   <g id="patch_2">
    <path d="M 57.6 307.584 
L 414.72 307.584 
L 414.72 41.472 
L 57.6 41.472 
z
" style="fill:#ffffff;"/>
   </g>
   <g id="patch_3">
    <path d="M 414.72 174.528 
L 396.864 181.1808 
L 402.2208 174.533544 
L 57.6 174.533544 
L 57.6 174.522456 
L 402.2208 174.522456 
L 396.864 167.8752 
z
" style="stroke:#000000;stroke-linejoin:miter;"/>
   </g>
   <g id="patch_4">
    <path d="M 236.16 41.472 
L 242.844463 59.24342 
L 236.177856 53.911994 
L 236.177856 307.584 
L 236.142144 307.584 
L 236.142144 53.911994 
L 229.475537 59.24342 
z
" style="stroke:#000000;stroke-linejoin:miter;"/>
   </g>
   <g id="matplotlib.axis_1"/>
   <g id="matplotlib.axis_2"/>
   <g id="line2d_1">
    <path clip-path="url(#p17fdf9b0c1)" d="M 143.644971 -1 
L 143.739497 0.358574 
L 145.53407 24.169286 
L 147.328643 46.084911 
L 149.123216 66.190292 
L 150.917789 84.568577 
L 152.712362 101.301217 
L 154.506935 116.467965 
L 156.301508 130.146878 
L 158.09608 142.414315 
L 159.890653 153.34494 
L 161.685226 163.011718 
L 163.479799 171.485919 
L 165.274372 178.837115 
L 167.068945 185.13318 
L 168.863518 190.440295 
L 170.65809 194.822939 
L 172.452663 198.343899 
L 174.247236 201.064261 
L 176.041809 203.043418 
L 177.836382 204.339061 
L 179.630955 205.00719 
L 181.425528 205.102104 
L 183.220101 204.676407 
L 185.014673 203.781005 
L 186.809246 202.465108 
L 188.603819 200.776228 
L 190.398392 198.760181 
L 192.192965 196.461087 
L 193.987538 193.921368 
L 197.576683 188.281256 
L 201.165829 182.145286 
L 210.138693 166.395434 
L 213.727839 160.53731 
L 217.316985 155.22182 
L 219.111558 152.817409 
L 220.906131 150.605078 
L 222.700704 148.600099 
L 224.495276 146.816046 
L 226.289849 145.264799 
L 228.084422 143.956538 
L 229.878995 142.899748 
L 231.673568 142.101217 
L 233.468141 141.566034 
L 235.262714 141.297595 
L 237.057286 141.297595 
L 238.851859 141.566034 
L 240.646432 142.101217 
L 242.441005 142.899748 
L 244.235578 143.956538 
L 246.030151 145.264799 
L 247.824724 146.816046 
L 249.619296 148.600099 
L 251.413869 150.605078 
L 253.208442 152.817409 
L 256.797588 157.801343 
L 260.386734 163.40936 
L 263.975879 169.471774 
L 274.743317 188.281256 
L 278.332462 193.921368 
L 280.127035 196.461087 
L 281.921608 198.760181 
L 283.716181 200.776228 
L 285.510754 202.465108 
L 287.305327 203.781005 
L 289.099899 204.676407 
L 290.894472 205.102104 
L 292.689045 205.00719 
L 294.483618 204.339061 
L 296.278191 203.043418 
L 298.072764 201.064261 
L 299.867337 198.343899 
L 301.66191 194.822939 
L 303.456482 190.440295 
L 305.251055 185.13318 
L 307.045628 178.837115 
L 308.840201 171.485919 
L 310.634774 163.011718 
L 312.429347 153.34494 
L 314.22392 142.414315 
L 316.018492 130.146878 
L 317.813065 116.467965 
L 319.607638 101.301217 
L 321.402211 84.568577 
L 323.196784 66.190292 
L 324.991357 46.084911 
L 326.78593 24.169286 
L 328.675029 -1 
L 328.675029 -1 
" style="fill:none;stroke:#1f77b4;stroke-linecap:square;stroke-width:2;"/>
   </g>
   <g id="line2d_2">
    <path clip-path="url(#p17fdf9b0c1)" d="M 182.592 204.8814 
L 182.592 174.528 
" style="fill:none;stroke:#000000;stroke-linecap:square;"/>
   </g>
   <g id="line2d_3">
    <path clip-path="url(#p17fdf9b0c1)" d="M 325.44 40.779 
L 325.44 174.528 
" style="fill:none;stroke:#000000;stroke-linecap:square;"/>
   </g>
   <g id="patch_5">
    <path d="M 236.16 307.584 
L 236.16 41.472 
" style="fill:none;stroke:#000000;stroke-linecap:square;stroke-linejoin:miter;stroke-width:0.8;"/>
   </g>
   <g id="patch_6">
    <path d="M 57.6 174.528 
L 414.72 174.528 
" style="fill:none;stroke:#000000;stroke-linecap:square;stroke-linejoin:miter;stroke-width:0.8;"/>
   </g>
   <g id="text_1">
    <!-- x -->
    <defs>
     <path d="M 54.890625 54.6875 
L 35.109375 28.078125 
L 55.90625 0 
L 45.3125 0 
L 29.390625 21.484375 
L 13.484375 0 
L 2.875 0 
L 24.125 28.609375 
L 4.6875 54.6875 
L 15.28125 54.6875 
L 29.78125 35.203125 
L 44.28125 54.6875 
z
" id="DejaVuSans-120"/>
    </defs>
    <g transform="translate(401.69875 168.843887)scale(0.22 -0.22)">
     <use xlink:href="#DejaVuSans-120"/>
    </g>
   </g>
   <g id="text_2">
    <!-- y -->
    <defs>
     <path d="M 32.171875 -5.078125 
Q 28.375 -14.84375 24.75 -17.8125 
Q 21.140625 -20.796875 15.09375 -20.796875 
L 7.90625 -20.796875 
L 7.90625 -13.28125 
L 13.1875 -13.28125 
Q 16.890625 -13.28125 18.9375 -11.515625 
Q 21 -9.765625 23.484375 -3.21875 
L 25.09375 0.875 
L 2.984375 54.6875 
L 12.5 54.6875 
L 29.59375 11.921875 
L 46.6875 54.6875 
L 56.203125 54.6875 
z
" id="DejaVuSans-121"/>
    </defs>
    <g transform="translate(218.304 58.188563)scale(0.22 -0.22)">
     <use xlink:href="#DejaVuSans-121"/>
    </g>
   </g>
   <g id="text_3">
    <!-- - -->
    <defs>
     <path d="M 4.890625 31.390625 
L 31.203125 31.390625 
L 31.203125 23.390625 
L 4.890625 23.390625 
z
" id="DejaVuSans-45"/>
    </defs>
    <g transform="translate(185.368413 192.128687)scale(0.22 -0.22)">
     <use xlink:href="#DejaVuSans-45"/>
    </g>
   </g>
   <g id="text_4">
    <!-- + -->
    <defs>
     <path d="M 46 62.703125 
L 46 35.5 
L 73.1875 35.5 
L 73.1875 27.203125 
L 46 27.203125 
L 46 0 
L 37.796875 0 
L 37.796875 27.203125 
L 10.59375 27.203125 
L 10.59375 35.5 
L 37.796875 35.5 
L 37.796875 62.703125 
z
" id="DejaVuSans-43"/>
    </defs>
    <g transform="translate(235.580687 161.082288)scale(0.22 -0.22)">
     <use xlink:href="#DejaVuSans-43"/>
    </g>
   </g>
   <g id="text_5">
    <!-- - -->
    <g transform="translate(281.790813 192.128687)scale(0.22 -0.22)">
     <use xlink:href="#DejaVuSans-45"/>
    </g>
   </g>
   <g id="text_6">
    <!-- + -->
    <g transform="translate(310.575888 161.082288)scale(0.22 -0.22)">
     <use xlink:href="#DejaVuSans-43"/>
    </g>
   </g>
  </g>
 </g>
 <defs>
  <clipPath id="p17fdf9b0c1">
   <rect height="266.112" width="357.12" x="57.6" y="41.472"/>
  </clipPath>
 </defs>
</svg>
