<?xml version="1.0" encoding="utf-8" standalone="no"?>
<!DOCTYPE svg PUBLIC "-//W3C//DTD SVG 1.1//EN"
  "http://www.w3.org/Graphics/SVG/1.1/DTD/svg11.dtd">
<!-- Created with matplotlib (https://matplotlib.org/) -->
<svg height="345.6pt" version="1.1" viewBox="0 0 460.8 345.6" width="460.8pt" xmlns="http://www.w3.org/2000/svg" xmlns:xlink="http://www.w3.org/1999/xlink">
 <defs>
  <style type="text/css">
*{stroke-linecap:butt;stroke-linejoin:round;}
  </style>
 </defs>
 <g id="figure_1">
  <g id="patch_1">
   <path d="M 0 345.6 
L 460.8 345.6 
L 460.8 0 
L 0 0 
z
" style="fill:#ffffff;"/>
  </g>
  <g id="axes_1">
   <g id="patch_2">
    <path d="M 57.6 307.584 
L 414.72 307.584 
L 414.72 41.472 
L 57.6 41.472 
z
" style="fill:#ffffff;"/>
   </g>
   <g id="PolyCollection_1">
    <path clip-path="url(#p81a1a92757)" d="M 307.584 243.71712 
L 307.584 307.584 
L 315.52 307.584 
L 323.456 307.584 
L 331.392 307.584 
L 339.328 307.584 
L 347.264 307.584 
L 355.2 307.584 
L 363.136 307.584 
L 371.072 307.584 
L 379.008 307.584 
L 379.008 115.98336 
L 379.008 115.98336 
L 371.072 134.381227 
L 363.136 151.727787 
L 355.2 168.02304 
L 347.264 183.266987 
L 339.328 197.459627 
L 331.392 210.60096 
L 323.456 222.690987 
L 315.52 233.729707 
L 307.584 243.71712 
z
" style="fill:#1f77b4;fill-opacity:0.3;"/>
   </g>
   <g id="patch_3">
    <path d="M 414.72 307.584 
L 396.864 314.2368 
L 402.2208 307.589322 
L 57.6 307.589322 
L 57.6 307.578678 
L 402.2208 307.578678 
L 396.864 300.9312 
z
" style="stroke:#000000;stroke-linejoin:miter;"/>
   </g>
   <g id="patch_4">
    <path d="M 236.16 41.472 
L 242.844463 59.24342 
L 236.177856 53.911994 
L 236.177856 307.584 
L 236.142144 307.584 
L 236.142144 53.911994 
L 229.475537 59.24342 
z
" style="stroke:#000000;stroke-linejoin:miter;"/>
   </g>
   <g id="matplotlib.axis_1">
    <g id="xtick_1">
     <g id="line2d_1">
      <defs>
       <path d="M 0 0 
L 0 3.5 
" id="m77639de11d" style="stroke:#000000;stroke-width:0.8;"/>
      </defs>
      <g>
       <use style="stroke:#000000;stroke-width:0.8;" x="307.584" xlink:href="#m77639de11d" y="307.584"/>
      </g>
     </g>
     <g id="text_1">
      <!-- $a$ -->
      <defs>
       <path d="M 53.71875 31.203125 
L 47.609375 0 
L 38.625 0 
L 40.28125 8.296875 
Q 36.328125 3.421875 31.265625 1 
Q 26.21875 -1.421875 20.015625 -1.421875 
Q 13.03125 -1.421875 8.5625 2.84375 
Q 4.109375 7.125 4.109375 13.8125 
Q 4.109375 23.390625 11.75 28.953125 
Q 19.390625 34.515625 32.8125 34.515625 
L 45.3125 34.515625 
L 45.796875 36.921875 
Q 45.90625 37.3125 45.953125 37.765625 
Q 46 38.234375 46 39.203125 
Q 46 43.5625 42.453125 45.96875 
Q 38.921875 48.390625 32.515625 48.390625 
Q 28.125 48.390625 23.5 47.265625 
Q 18.890625 46.140625 14.015625 43.890625 
L 15.578125 52.203125 
Q 20.65625 54.109375 25.515625 55.046875 
Q 30.375 56 34.90625 56 
Q 44.578125 56 49.625 51.796875 
Q 54.6875 47.609375 54.6875 39.59375 
Q 54.6875 37.984375 54.4375 35.8125 
Q 54.203125 33.640625 53.71875 31.203125 
z
M 44 27.484375 
L 35.015625 27.484375 
Q 23.96875 27.484375 18.671875 24.53125 
Q 13.375 21.578125 13.375 15.375 
Q 13.375 11.078125 16.078125 8.640625 
Q 18.796875 6.203125 23.578125 6.203125 
Q 30.90625 6.203125 36.375 11.453125 
Q 41.84375 16.703125 43.609375 25.484375 
z
" id="DejaVuSans-Oblique-97"/>
      </defs>
      <g transform="translate(300.764 331.300562)scale(0.22 -0.22)">
       <use xlink:href="#DejaVuSans-Oblique-97"/>
      </g>
     </g>
    </g>
    <g id="xtick_2">
     <g id="line2d_2">
      <g>
       <use style="stroke:#000000;stroke-width:0.8;" x="379.008" xlink:href="#m77639de11d" y="307.584"/>
      </g>
     </g>
     <g id="text_2">
      <!-- $b$ -->
      <defs>
       <path d="M 49.515625 33.40625 
Q 49.515625 40.484375 46.265625 44.484375 
Q 43.015625 48.484375 37.3125 48.484375 
Q 33.15625 48.484375 29.515625 46.453125 
Q 25.875 44.4375 23.1875 40.578125 
Q 20.359375 36.53125 18.71875 31.171875 
Q 17.09375 25.828125 17.09375 20.515625 
Q 17.09375 13.765625 20.28125 9.9375 
Q 23.484375 6.109375 29.109375 6.109375 
Q 33.34375 6.109375 36.953125 8.078125 
Q 40.578125 10.0625 43.3125 13.921875 
Q 46.09375 17.921875 47.796875 23.234375 
Q 49.515625 28.5625 49.515625 33.40625 
z
M 21.578125 46.390625 
Q 24.90625 50.875 29.90625 53.4375 
Q 34.90625 56 40.375 56 
Q 48.78125 56 53.734375 50.328125 
Q 58.6875 44.671875 58.6875 35.015625 
Q 58.6875 27.09375 55.78125 19.671875 
Q 52.875 12.25 47.515625 6.5 
Q 44 2.6875 39.40625 0.625 
Q 34.8125 -1.421875 29.78125 -1.421875 
Q 24.46875 -1.421875 20.5625 1.015625 
Q 16.65625 3.46875 14.203125 8.296875 
L 12.59375 0 
L 3.609375 0 
L 18.40625 75.984375 
L 27.390625 75.984375 
z
" id="DejaVuSans-Oblique-98"/>
      </defs>
      <g transform="translate(371.968 331.300562)scale(0.22 -0.22)">
       <use transform="translate(0 0.015625)" xlink:href="#DejaVuSans-Oblique-98"/>
      </g>
     </g>
    </g>
   </g>
   <g id="matplotlib.axis_2"/>
   <g id="line2d_3">
    <path clip-path="url(#p81a1a92757)" d="M 57.6 20.18304 
L 64.778291 41.148911 
L 71.956583 61.254643 
L 79.134874 80.500237 
L 84.518593 94.369967 
L 89.902312 107.755869 
L 95.28603 120.657943 
L 100.669749 133.076189 
L 106.053467 145.010608 
L 111.437186 156.461199 
L 116.820905 167.427962 
L 122.204623 177.910897 
L 127.588342 187.910004 
L 132.97206 197.425284 
L 138.355779 206.456736 
L 143.739497 215.00436 
L 149.123216 223.068157 
L 154.506935 230.648125 
L 159.890653 237.744266 
L 165.274372 244.356579 
L 170.65809 250.485064 
L 176.041809 256.129722 
L 179.630955 259.624034 
L 183.220101 262.903311 
L 186.809246 265.967553 
L 190.398392 268.816761 
L 193.987538 271.450935 
L 197.576683 273.870074 
L 201.165829 276.074178 
L 204.754975 278.063248 
L 208.344121 279.837283 
L 211.933266 281.396284 
L 215.522412 282.74025 
L 219.111558 283.869181 
L 222.700704 284.783078 
L 226.289849 285.481941 
L 229.878995 285.965768 
L 233.468141 286.234562 
L 237.057286 286.28832 
L 240.646432 286.127044 
L 244.235578 285.750734 
L 247.824724 285.159389 
L 251.413869 284.353009 
L 255.003015 283.331595 
L 258.592161 282.095146 
L 262.181307 280.643663 
L 265.770452 278.977145 
L 269.359598 277.095592 
L 272.948744 274.999005 
L 276.537889 272.687384 
L 280.127035 270.160727 
L 283.716181 267.419037 
L 287.305327 264.462311 
L 290.894472 261.290551 
L 294.483618 257.903757 
L 298.072764 254.301928 
L 301.66191 250.485064 
L 307.045628 244.356579 
L 312.429347 237.744266 
L 317.813065 230.648125 
L 323.196784 223.068157 
L 328.580503 215.00436 
L 333.964221 206.456736 
L 339.34794 197.425284 
L 344.731658 187.910004 
L 350.115377 177.910897 
L 355.499095 167.427962 
L 360.882814 156.461199 
L 366.266533 145.010608 
L 371.650251 133.076189 
L 377.03397 120.657943 
L 382.417688 107.755869 
L 387.801407 94.369967 
L 393.185126 80.500237 
L 398.568844 66.146679 
L 405.747136 46.255982 
L 412.925427 25.505146 
L 414.72 20.18304 
L 414.72 20.18304 
" style="fill:none;stroke:#1f77b4;stroke-linecap:square;stroke-width:2;"/>
   </g>
   <g id="patch_5">
    <path d="M 236.16 307.584 
L 236.16 41.472 
" style="fill:none;stroke:#000000;stroke-linecap:square;stroke-linejoin:miter;stroke-width:0.8;"/>
   </g>
   <g id="patch_6">
    <path d="M 57.6 307.584 
L 414.72 307.584 
" style="fill:none;stroke:#000000;stroke-linecap:square;stroke-linejoin:miter;stroke-width:0.8;"/>
   </g>
   <g id="text_3">
    <!-- x -->
    <defs>
     <path d="M 54.890625 54.6875 
L 35.109375 28.078125 
L 55.90625 0 
L 45.3125 0 
L 29.390625 21.484375 
L 13.484375 0 
L 2.875 0 
L 24.125 28.609375 
L 4.6875 54.6875 
L 15.28125 54.6875 
L 29.78125 35.203125 
L 44.28125 54.6875 
z
" id="DejaVuSans-120"/>
    </defs>
    <g transform="translate(401.69875 301.944239)scale(0.22 -0.22)">
     <use xlink:href="#DejaVuSans-120"/>
    </g>
   </g>
   <g id="text_4">
    <!-- y -->
    <defs>
     <path d="M 32.171875 -5.078125 
Q 28.375 -14.84375 24.75 -17.8125 
Q 21.140625 -20.796875 15.09375 -20.796875 
L 7.90625 -20.796875 
L 7.90625 -13.28125 
L 13.1875 -13.28125 
Q 16.890625 -13.28125 18.9375 -11.515625 
Q 21 -9.765625 23.484375 -3.21875 
L 25.09375 0.875 
L 2.984375 54.6875 
L 12.5 54.6875 
L 29.59375 11.921875 
L 46.6875 54.6875 
L 56.203125 54.6875 
z
" id="DejaVuSans-121"/>
    </defs>
    <g transform="translate(218.304 58.188563)scale(0.22 -0.22)">
     <use xlink:href="#DejaVuSans-121"/>
    </g>
   </g>
  </g>
 </g>
 <defs>
  <clipPath id="p81a1a92757">
   <rect height="266.112" width="357.12" x="57.6" y="41.472"/>
  </clipPath>
 </defs>
</svg>
