<?xml version="1.0" encoding="utf-8" standalone="no"?>
<!DOCTYPE svg PUBLIC "-//W3C//DTD SVG 1.1//EN"
  "http://www.w3.org/Graphics/SVG/1.1/DTD/svg11.dtd">
<!-- Created with matplotlib (https://matplotlib.org/) -->
<svg height="345.6pt" version="1.1" viewBox="0 0 460.8 345.6" width="460.8pt" xmlns="http://www.w3.org/2000/svg" xmlns:xlink="http://www.w3.org/1999/xlink">
 <defs>
  <style type="text/css">
*{stroke-linecap:butt;stroke-linejoin:round;}
  </style>
 </defs>
 <g id="figure_1">
  <g id="patch_1">
   <path d="M 0 345.6 
L 460.8 345.6 
L 460.8 0 
L 0 0 
z
" style="fill:#ffffff;"/>
  </g>
  <g id="axes_1">
   <g id="patch_2">
    <path d="M 57.6 307.584 
L 414.72 307.584 
L 414.72 41.472 
L 57.6 41.472 
z
" style="fill:#ffffff;"/>
   </g>
   <g id="Quiver_1">
    <path clip-path="url(#pe7615e7563)" d="M 234.8208 174.528 
L 234.8208 120.0528 
L 232.1424 121.392 
L 236.16 108 
L 240.1776 121.392 
L 237.4992 120.0528 
L 237.4992 174.528 
L 234.8208 174.528 
"/>
    <path clip-path="url(#pe7615e7563)" d="M 236.16 173.1888 
L 313.3872 173.1888 
L 312.048 170.5104 
L 325.44 174.528 
L 312.048 178.5456 
L 313.3872 175.8672 
L 236.16 175.8672 
L 236.16 173.1888 
"/>
    <path clip-path="url(#pe7615e7563)" d="M 235.630751 173.297816 
L 301.877844 144.797053 
L 299.589163 142.865934 
L 313.478748 141.264 
L 302.764654 150.247038 
L 302.936341 147.257421 
L 236.689249 175.758184 
L 235.630751 173.297816 
"/>
    <path clip-path="url(#pe7615e7563)" d="M 235.101373 175.348223 
L 197.843381 127.260926 
L 196.54635 129.959999 
L 191.52 116.913062 
L 202.898111 125.038661 
L 199.960634 125.62048 
L 237.218627 173.707777 
L 235.101373 175.348223 
"/>
   </g>
   <g id="patch_3">
    <path d="M 414.72 174.528 
L 396.864 181.1808 
L 402.2208 174.561264 
L 57.6 174.561264 
L 57.6 174.494736 
L 402.2208 174.494736 
L 396.864 167.8752 
z
" style="stroke:#000000;stroke-linejoin:miter;"/>
   </g>
   <g id="patch_4">
    <path d="M 236.16 41.472 
L 242.844463 59.24342 
L 236.20464 53.911994 
L 236.20464 307.584 
L 236.11536 307.584 
L 236.11536 53.911994 
L 229.475537 59.24342 
z
" style="stroke:#000000;stroke-linejoin:miter;"/>
   </g>
   <g id="matplotlib.axis_1"/>
   <g id="matplotlib.axis_2"/>
   <g id="patch_5">
    <path d="M 236.16 307.584 
L 236.16 41.472 
" style="fill:none;stroke:#000000;stroke-linecap:square;stroke-linejoin:miter;stroke-width:0.8;"/>
   </g>
   <g id="patch_6">
    <path d="M 57.6 174.528 
L 414.72 174.528 
" style="fill:none;stroke:#000000;stroke-linecap:square;stroke-linejoin:miter;stroke-width:0.8;"/>
   </g>
   <g id="text_1">
    <!-- x -->
    <defs>
     <path d="M 54.890625 54.6875 
L 35.109375 28.078125 
L 55.90625 0 
L 45.3125 0 
L 29.390625 21.484375 
L 13.484375 0 
L 2.875 0 
L 24.125 28.609375 
L 4.6875 54.6875 
L 15.28125 54.6875 
L 29.78125 35.203125 
L 44.28125 54.6875 
z
" id="DejaVuSans-120"/>
    </defs>
    <g transform="translate(401.69875 163.299888)scale(0.22 -0.22)">
     <use xlink:href="#DejaVuSans-120"/>
    </g>
   </g>
   <g id="text_2">
    <!-- y -->
    <defs>
     <path d="M 32.171875 -5.078125 
Q 28.375 -14.84375 24.75 -17.8125 
Q 21.140625 -20.796875 15.09375 -20.796875 
L 7.90625 -20.796875 
L 7.90625 -13.28125 
L 13.1875 -13.28125 
Q 16.890625 -13.28125 18.9375 -11.515625 
Q 21 -9.765625 23.484375 -3.21875 
L 25.09375 0.875 
L 2.984375 54.6875 
L 12.5 54.6875 
L 29.59375 11.921875 
L 46.6875 54.6875 
L 56.203125 54.6875 
z
" id="DejaVuSans-121"/>
    </defs>
    <g transform="translate(191.52 58.188563)scale(0.22 -0.22)">
     <use xlink:href="#DejaVuSans-121"/>
    </g>
   </g>
   <g id="text_3">
    <!-- O -->
    <defs>
     <path d="M 39.40625 66.21875 
Q 28.65625 66.21875 22.328125 58.203125 
Q 16.015625 50.203125 16.015625 36.375 
Q 16.015625 22.609375 22.328125 14.59375 
Q 28.65625 6.59375 39.40625 6.59375 
Q 50.140625 6.59375 56.421875 14.59375 
Q 62.703125 22.609375 62.703125 36.375 
Q 62.703125 50.203125 56.421875 58.203125 
Q 50.140625 66.21875 39.40625 66.21875 
z
M 39.40625 74.21875 
Q 54.734375 74.21875 63.90625 63.9375 
Q 73.09375 53.65625 73.09375 36.375 
Q 73.09375 19.140625 63.90625 8.859375 
Q 54.734375 -1.421875 39.40625 -1.421875 
Q 24.03125 -1.421875 14.8125 8.828125 
Q 5.609375 19.09375 5.609375 36.375 
Q 5.609375 53.65625 14.8125 63.9375 
Q 24.03125 74.21875 39.40625 74.21875 
z
" id="DejaVuSans-79"/>
    </defs>
    <g transform="translate(218.841875 191.244563)scale(0.22 -0.22)">
     <use xlink:href="#DejaVuSans-79"/>
    </g>
   </g>
   <g id="text_4">
    <!-- $\overline{e}_y$ -->
    <defs>
     <path d="M 48.09375 32.234375 
Q 48.25 33.015625 48.3125 33.84375 
Q 48.390625 34.671875 48.390625 35.5 
Q 48.390625 41.453125 44.890625 44.921875 
Q 41.40625 48.390625 35.40625 48.390625 
Q 28.71875 48.390625 23.578125 44.15625 
Q 18.453125 39.9375 15.828125 32.171875 
z
M 55.90625 25.203125 
L 14.109375 25.203125 
Q 13.8125 23.34375 13.71875 22.265625 
Q 13.625 21.1875 13.625 20.40625 
Q 13.625 13.625 17.796875 9.90625 
Q 21.96875 6.203125 29.59375 6.203125 
Q 35.453125 6.203125 40.671875 7.515625 
Q 45.90625 8.84375 50.390625 11.375 
L 48.6875 2.484375 
Q 43.84375 0.53125 38.6875 -0.4375 
Q 33.546875 -1.421875 28.21875 -1.421875 
Q 16.84375 -1.421875 10.71875 4.015625 
Q 4.59375 9.46875 4.59375 19.484375 
Q 4.59375 28.03125 7.640625 35.375 
Q 10.6875 42.71875 16.609375 48.484375 
Q 20.40625 52.09375 25.65625 54.046875 
Q 30.90625 56 36.8125 56 
Q 46.09375 56 51.578125 50.4375 
Q 57.078125 44.875 57.078125 35.5 
Q 57.078125 33.25 56.78125 30.6875 
Q 56.5 28.125 55.90625 25.203125 
z
" id="DejaVuSans-Oblique-101"/>
     <path d="M 24.8125 -5.078125 
Q 18.5625 -15.578125 14.625 -18.1875 
Q 10.6875 -20.796875 4.59375 -20.796875 
L -2.484375 -20.796875 
L -0.984375 -13.28125 
L 4.203125 -13.28125 
Q 7.953125 -13.28125 10.59375 -11.234375 
Q 13.234375 -9.1875 16.5 -3.21875 
L 19.28125 2 
L 7.171875 54.6875 
L 16.703125 54.6875 
L 25.78125 12.796875 
L 50.875 54.6875 
L 60.296875 54.6875 
z
" id="DejaVuSans-Oblique-121"/>
    </defs>
    <g transform="translate(212.62 125.82)scale(0.22 -0.22)">
     <use transform="translate(0 0.75)" xlink:href="#DejaVuSans-Oblique-101"/>
     <use transform="translate(62.480469 -16.15625)scale(0.7)" xlink:href="#DejaVuSans-Oblique-121"/>
     <path d="M 0 68.5 
L 0 74.75 
L 61.523438 74.75 
L 61.523438 68.5 
L 0 68.5 
z
"/>
    </g>
   </g>
   <g id="text_5">
    <!-- $\overline{e}_x$ -->
    <defs>
     <path d="M 60.015625 54.6875 
L 34.90625 27.875 
L 50.296875 0 
L 39.984375 0 
L 28.421875 21.6875 
L 8.296875 0 
L -2.59375 0 
L 24.3125 28.8125 
L 10.015625 54.6875 
L 20.3125 54.6875 
L 30.8125 34.90625 
L 49.125 54.6875 
z
" id="DejaVuSans-Oblique-120"/>
    </defs>
    <g transform="translate(325.44 169.952687)scale(0.22 -0.22)">
     <use transform="translate(0 0.75)" xlink:href="#DejaVuSans-Oblique-101"/>
     <use transform="translate(62.480469 -16.15625)scale(0.7)" xlink:href="#DejaVuSans-Oblique-120"/>
     <path d="M 0 68.5 
L 0 74.75 
L 61.523438 74.75 
L 61.523438 68.5 
L 0 68.5 
z
"/>
    </g>
   </g>
   <g id="text_6">
    <!-- $\overline{e}_u$ -->
    <defs>
     <path d="M 6.6875 21.6875 
L 13.09375 54.6875 
L 22.125 54.6875 
L 15.71875 22.015625 
Q 15.234375 19.625 15.015625 17.921875 
Q 14.796875 16.21875 14.796875 15.09375 
Q 14.796875 10.9375 17.328125 8.65625 
Q 19.875 6.390625 24.515625 6.390625 
Q 31.734375 6.390625 37 11.265625 
Q 42.28125 16.15625 43.890625 24.421875 
L 49.90625 54.6875 
L 58.890625 54.6875 
L 48.296875 0 
L 39.3125 0 
L 41.109375 8.59375 
Q 37.3125 3.8125 32.0625 1.1875 
Q 26.8125 -1.421875 20.90625 -1.421875 
Q 13.71875 -1.421875 9.71875 2.515625 
Q 5.71875 6.453125 5.71875 13.484375 
Q 5.71875 14.9375 5.953125 17.140625 
Q 6.203125 19.34375 6.6875 21.6875 
z
" id="DejaVuSans-Oblique-117"/>
    </defs>
    <g transform="translate(313.478748 136.688688)scale(0.22 -0.22)">
     <use transform="translate(0 0.75)" xlink:href="#DejaVuSans-Oblique-101"/>
     <use transform="translate(62.480469 -16.15625)scale(0.7)" xlink:href="#DejaVuSans-Oblique-117"/>
     <path d="M 0 68.5 
L 0 74.75 
L 61.523438 74.75 
L 61.523438 68.5 
L 0 68.5 
z
"/>
    </g>
   </g>
   <g id="text_7">
    <!-- $\overline{e}_v$ -->
    <defs>
     <path d="M 7.171875 54.6875 
L 16.703125 54.6875 
L 24.703125 8.203125 
L 50.875 54.6875 
L 60.40625 54.6875 
L 29.296875 0 
L 17.1875 0 
z
" id="DejaVuSans-Oblique-118"/>
    </defs>
    <g transform="translate(167.98 133.897749)scale(0.22 -0.22)">
     <use transform="translate(0 0.75)" xlink:href="#DejaVuSans-Oblique-101"/>
     <use transform="translate(62.480469 -16.15625)scale(0.7)" xlink:href="#DejaVuSans-Oblique-118"/>
     <path d="M 0 68.5 
L 0 74.75 
L 61.523438 74.75 
L 61.523438 68.5 
L 0 68.5 
z
"/>
    </g>
   </g>
  </g>
 </g>
 <defs>
  <clipPath id="pe7615e7563">
   <rect height="266.112" width="357.12" x="57.6" y="41.472"/>
  </clipPath>
 </defs>
</svg>
